<?xml version="1.0" encoding="UTF-8" standalone="no"?>
<!-- Created with Inkscape (http://www.inkscape.org/) -->

<svg
   width="148mm"
   height="44mm"
   viewBox="0 0 148 44"
   version="1.1"
   id="svg5"
   inkscape:version="1.1.2 (0a00cf5339, 2022-02-04)"
   sodipodi:docname="habutax.svg"
   xmlns:inkscape="http://www.inkscape.org/namespaces/inkscape"
   xmlns:sodipodi="http://sodipodi.sourceforge.net/DTD/sodipodi-0.dtd"
   xmlns="http://www.w3.org/2000/svg"
   xmlns:svg="http://www.w3.org/2000/svg">
  <sodipodi:namedview
     id="namedview7"
     pagecolor="#ffffff"
     bordercolor="#666666"
     borderopacity="1.0"
     inkscape:pageshadow="2"
     inkscape:pageopacity="0.0"
     inkscape:pagecheckerboard="0"
     inkscape:document-units="mm"
     showgrid="false"
     inkscape:zoom="4.3994184"
     inkscape:cx="253.32894"
     inkscape:cy="105.01388"
     inkscape:window-width="5158"
     inkscape:window-height="2128"
     inkscape:window-x="2560"
     inkscape:window-y="30"
     inkscape:window-maximized="1"
     inkscape:current-layer="text1816-7"
     units="mm" />
  <defs
     id="defs2" />
  <g
     inkscape:label="Layer 1"
     inkscape:groupmode="layer"
     id="layer1">
    <g
       aria-label="HabuTax"
       id="text1816-7"
       style="font-size:38.3439px;line-height:1.25;letter-spacing:0px;word-spacing:0px;stroke-width:0.958598">
      <g
         id="g26266"
         transform="matrix(1.3097381,0,0,1.3097381,-22.064833,-35.255003)">
        <g
           id="g24899"
           transform="translate(-23.732133,-97.457887)"
           style="stroke-width:0.35;stroke-miterlimit:4;stroke-dasharray:none">
          <path
             d="m 48.586647,139.29413 v 0.53682 h 6.78687 v -0.0767 q 0.0383,-0.92025 0.0383,-2.30063 0,-1.41872 -0.0383,-2.45402 -0.0383,-1.07362 -0.0767,-1.80215 -0.0383,-0.72853 -0.11503,-1.26536 -0.0383,-0.53681 -0.0767,-0.80521 -0.0383,-0.30676 -0.0383,-0.53682 0,-0.23006 0.42178,-0.53681 1.84051,-1.22701 4.1028,-1.22701 1.41872,0 1.41872,0.49847 0,0.0383 -0.0767,0.42179 -0.72853,3.64267 -0.92025,10.08445 -0.11503,6.44177 -0.11503,6.9019 0,5.9433 0.69019,8.24394 0.11503,0.30674 0.11503,0.53681 0,0.19172 -0.30675,0.46013 -1.41873,0.92025 -3.68102,0.92025 -1.45706,0 -1.64878,-0.99694 -0.11504,-0.53682 -0.11504,-1.64879 0,-1.15032 0.11504,-3.48929 0.15337,-2.33898 0.23006,-8.16725 h -6.71018 q 0,8.74241 0.53681,12.27004 0,0.92026 -1.76382,1.49542 -1.76382,0.6135 -2.91413,0.6135 -1.15032,0 -1.15032,-0.3451 0,-0.23006 0.11503,-0.57516 0.72853,-1.61044 0.72853,-12.96023 v -0.49848 h -2.26229 q -0.30675,0 -0.30675,-0.23007 0,-0.0767 0.15338,-0.57516 0.15337,-0.53681 0.69019,-1.227 0.57516,-0.69019 1.26535,-0.69019 h 0.42178 q 0,-7.55375 -0.88191,-8.70407 l -0.15337,-0.23006 q -0.23007,-0.19172 -0.23007,-0.46013 0,-0.30675 0.42178,-0.49847 0.57516,-0.3451 2.03223,-0.69019 1.49541,-0.3451 2.68407,-0.3451 1.18866,0 1.18866,0.53682 v 0.11503 q -0.46012,3.98777 -0.57515,9.70101 z"
             style="font-size:38.3439px;line-height:1.25;font-family:Aladin;-inkscape-font-specification:Aladin;letter-spacing:0px;word-spacing:0px;fill:#c49f70;fill-opacity:1;stroke:#591b0f;stroke-width:0.35;stroke-miterlimit:4;stroke-dasharray:none;stroke-opacity:1"
             id="path17642-3-0" />
          <path
             d="m 76.002527,144.7773 -0.0767,4.90802 q 0,5.09974 1.11197,6.13502 0.15338,0.15338 0.15338,0.3451 0,0.57516 -2.49236,0.57516 -2.45401,0 -2.60738,-1.45707 -0.0383,-0.3451 -0.0383,-1.41873 l 0.15337,-6.13502 q 0,-0.26841 -0.30675,-0.26841 -1.8405,0 -3.45095,1.03529 -1.61044,1.03528 -1.61044,2.64573 0,0.84356 0.46013,1.41872 0.46012,0.57516 1.11197,0.57516 0.69019,0 1.11197,-0.26841 0.46013,-0.26841 0.53682,-0.30675 0.65184,0.0767 0.65184,1.38038 0,1.26535 -1.18866,2.07057 -1.18866,0.76688 -2.49235,0.76688 -1.30369,0 -2.26229,-0.46013 -0.92025,-0.46012 -1.34204,-1.03528 -0.42178,-0.57516 -0.69019,-1.3037 -0.2684,-0.88191 -0.2684,-1.53375 0,-2.68407 1.68713,-4.29452 1.68713,-1.61044 4.33286,-2.30063 3.48929,-0.69019 3.64267,-1.26535 0.11503,-0.42178 0.11503,-1.41873 0,-2.03222 -2.07057,-2.03222 -0.88191,0 -1.5721,0.57516 -0.69019,0.53681 -0.69019,1.38038 l 0.23006,0.92025 q -0.0767,0.65185 -1.38038,0.76688 l -0.42178,0.0383 q -1.15032,0 -1.84051,-0.57516 -0.65185,-0.57515 -0.65185,-1.53375 0,-0.6135 0.38344,-1.34204 0.42179,-0.76688 1.03529,-1.227 0.6135,-0.46013 1.87885,-0.80523 1.30369,-0.38343 2.49235,-0.38343 1.18866,0 1.84051,0.0767 0.65185,0.0767 1.76382,0.38344 1.15032,0.26841 1.87885,1.07363 0.76688,0.80522 0.80522,1.72548 0.0767,0.88191 0.0767,2.56904 z"
             style="font-size:38.3439px;line-height:1.25;font-family:Aladin;-inkscape-font-specification:Aladin;letter-spacing:0px;word-spacing:0px;fill:#c49f70;fill-opacity:1;stroke:#591b0f;stroke-width:0.35;stroke-miterlimit:4;stroke-dasharray:none;stroke-opacity:1"
             id="path17644-5-9" />
          <path
             id="path17646-6-3"
             style="font-size:38.3439px;line-height:1.25;font-family:Aladin;-inkscape-font-specification:Aladin;letter-spacing:0px;word-spacing:0px;fill:#c49f70;fill-opacity:1;stroke:#591b0f;stroke-width:1.32283;stroke-miterlimit:4;stroke-dasharray:none;stroke-opacity:1"
             d="m 352.89844,471.98047 -0.008,0.004 c -0.56035,0.065 -1.01233,0.92539 -0.73242,1.27148 l -0.33203,0.96875 c -0.0227,0.0302 -0.0391,0.0393 -0.0644,0.0801 -0.10394,0.16894 -0.25789,0.31477 -0.3418,0.32422 -0.0839,0.0113 -0.32136,0.32906 -0.52734,0.70898 -0.62536,1.15215 -0.84057,1.44356 -1.25,1.69531 -1.54175,0.94802 -3.79557,3.41448 -3.43164,3.58399 l -0.20899,0.25586 c -0.008,-0.008 -0.0216,-0.008 -0.0254,-0.0156 -0.0378,-0.0733 -0.0856,-0.1059 -0.10937,-0.0723 -0.0227,0.034 -0.20561,0.31995 -0.4043,0.63672 -0.25096,0.39998 -0.57538,0.71161 -1.05859,1.01953 -1.01273,0.64531 -1.7794,1.28943 -1.75782,1.47656 0.0113,0.0975 -0.0857,0.17522 -0.24218,0.19336 -0.14438,0.0151 -0.43241,0.17827 -0.64063,0.35742 -0.20825,0.17953 -0.57565,0.45716 -0.8164,0.61719 -0.24076,0.15987 -0.48436,0.37085 -0.54102,0.4707 -0.0567,0.0998 -0.1654,0.15429 -0.24023,0.11914 -0.0748,-0.034 -0.24835,0.0777 -0.38672,0.25195 -0.13796,0.17386 -0.3136,0.32296 -0.39063,0.33204 -0.26154,0.0302 -0.74619,0.58749 -0.68164,0.7832 0.0386,0.11565 -0.004,0.19689 -0.10937,0.20898 -0.11717,0.0151 -0.15505,-0.0433 -0.11914,-0.18164 0.034,-0.13417 -0.0899,-0.0605 -0.3711,0.22071 -0.23319,0.23281 -0.41857,0.46941 -0.41211,0.52539 0.008,0.0559 -0.0506,0.10931 -0.12695,0.11914 -0.2812,0.034 -1.21117,1.36144 -1.17969,1.68164 0.0151,0.16819 -0.0144,0.29523 -0.0723,0.28125 -0.10281,-0.0265 -0.26512,0.21664 -0.25,0.375 0.004,0.0457 0.0824,0.075 0.17382,0.0645 0.0919,-0.0113 0.17005,0.008 0.17383,0.041 0.0189,0.15533 -0.30456,0.64917 -0.43359,0.66406 -0.14287,0.0151 -0.47618,1.1453 -0.73633,2.49414 -0.12435,0.64558 -0.16799,0.70919 -0.87109,1.2793 -0.40721,0.32995 -0.75486,0.69736 -0.77149,0.81445 -0.0227,0.14438 -0.0962,0.20066 -0.23828,0.17383 -0.11792,-0.0227 -0.39011,0.099 -0.62305,0.27734 -0.22752,0.17424 -0.70631,0.53489 -1.0625,0.80078 -0.61606,0.45982 -0.82231,0.67278 -0.47656,0.49219 0.0877,-0.0442 0.16589,-0.0251 0.17383,0.041 0.008,0.0677 -0.0991,0.13728 -0.23633,0.15429 -0.4029,0.0503 -1.17769,0.56192 -1.09375,0.72266 0.0404,0.0779 0.0151,0.14793 -0.0586,0.15625 -0.15269,0.0189 -1.52917,0.99261 -1.51953,1.07617 0.003,0.0302 0.21391,-0.0932 0.46679,-0.27539 0.25285,-0.18217 0.44315,-0.27053 0.42383,-0.19531 -0.045,0.17499 -0.63073,0.50504 -1.00195,0.56445 -0.15723,0.0265 -0.46547,0.20414 -0.68555,0.39648 -1.0456,0.91469 -4.45563,2.48895 -5.0664,2.33985 -0.14665,-0.0378 -0.49563,-0.0258 -0.7754,0.0195 -0.27968,0.0476 -1.64735,0.15041 -3.04101,0.23242 -2.39036,0.14098 -5.67378,0.6153 -5.99023,0.86524 -0.0518,0.0401 -0.67852,0.26079 -1.39258,0.48828 -3.42214,1.08865 -6.66649,3.39562 -8.60157,6.11718 -0.2211,0.31106 -0.39585,0.61763 -0.38867,0.67969 0.008,0.062 -0.0596,0.1879 -0.14844,0.28125 -0.0888,0.093 -0.31554,0.46585 -0.50195,0.83008 -0.18671,0.36435 -0.49978,0.9585 -0.69726,1.32031 -0.19767,0.3617 -0.88815,4.24304 -0.94432,4.82164 -0.4774,4.91769 -0.82809,8.38166 -0.96855,12.35672 l -0.1614,45.66149 c 0,7.53596 0.14569,12.31876 0.43554,14.34765 0.19324,0.96616 0.91785,1.64284 2.17383,2.0293 l 1.44922,0.28906 c 3.38152,0.6762 6.81094,1.01367 10.28906,1.01367 11.9802,0 21.11067,-3.67095 27.39063,-11.01367 6.37654,-7.34267 9.56445,-16.90637 9.56445,-28.69336 0,-5.12054 -0.62878,-9.56598 -1.88476,-13.33398 -0.38875,-1.29583 -0.55971,-2.01573 -0.99191,-3.07258 10.99584,-1.39642 12.24184,4.21136 12.04073,7.14875 l -2.0625,30.125 c 0,3.86461 0.72461,7.15027 2.17383,9.85547 1.44922,2.60859 3.33361,4.44505 5.65235,5.50781 3.76798,1.73908 7.39099,2.60742 10.86914,2.60742 6.27994,0 10.91706,-1.98019 13.91211,-5.9414 0.28985,-0.38657 0.57925,-0.58008 0.86914,-0.58008 0.38672,0 0.62823,0.24155 0.72461,0.72461 1.06276,4.15442 5.31458,6.23242 12.7539,6.23242 2.1255,0 3.1875,-0.62879 3.1875,-1.88477 l -0.58008,-1.88281 c -0.96616,-3.76796 -1.44921,-11.59492 -1.44921,-23.47851 0,-16.13466 0.8703,-29.41915 2.60937,-39.85352 0,-1.15937 -0.72461,-1.73828 -2.17383,-1.73828 -3.09169,0 -6.57098,0.72464 -10.43554,2.17383 -3.86461,1.35262 -5.79688,3.23696 -5.79688,5.65234 0,0.57967 0.24155,2.02892 0.72461,4.34766 0.57967,2.22213 0.87109,7.58385 0.87109,16.08594 0,8.50208 -0.19362,14.44271 -0.58007,17.82421 l -0.43555,3.04493 c -0.28985,2.02888 -1.25597,4.05705 -2.89844,6.08593 -1.64247,2.02889 -3.91214,3.04297 -6.81055,3.04297 -2.80183,0 -5.02358,-0.96615 -6.66601,-2.89843 -1.54584,-1.93229 -2.32031,-4.68502 -2.32031,-8.25977 0,-3.67132 1.07499,-9.73191 1.96484,-18.5 0.64997,-6.40433 -1.36633,-13.022 -2.3125,-15.52344 -0.74888,-1.9799 -3.2959,-7.99442 -9.43467,-9.80904 -1.14398,-0.33816 -2.94075,-0.74053 -3.95205,-0.79447 -2.40412,-0.12824 -5.64781,-0.57624 -10.13476,-0.31836 -3.79184,0.21791 -7.00222,0.55245 -9.66797,0.92382 -2.13284,-1.08198 -4.14226,-1.6289 -6.02539,-1.6289 -3.67136,0 -6.71552,1.01404 -9.13086,3.04297 -2.31877,1.93228 -3.47852,4.54127 -3.47852,7.82617 0,3.18826 0.87031,4.78125 2.60938,4.78125 l 3.33203,-0.86914 c 4.44427,0 7.34272,3.1879 8.69531,9.56445 0.77294,3.2849 1.16016,6.32902 1.16016,9.13086 0,5.99006 -0.96615,11.44958 -2.89844,16.37695 -1.06278,2.7052 -2.6577,4.87902 -4.7832,6.52149 -2.12554,1.64247 -4.68464,2.46289 -7.67969,2.46289 -2.89855,0 -7.07032,-2.11494 -7.2519,-3.45878 -0.78488,-5.80896 -1.34215,-18.1674 -1.35793,-30.08001 -0.011,-8.32599 0.47975,-28.47107 1.78616,-31.99594 0.95871,-2.58674 5.11058,-4.48895 9.60687,-4.27191 4.44798,0.21468 7.25072,-0.59767 10.07422,-2.91992 0.25436,-0.20939 1.09611,-0.82472 1.86914,-1.36719 0.80795,-0.56693 1.30363,-1.01008 1.42578,-1.21875 l 0.30078,-0.0742 c 0.008,0.008 -0.007,0.0121 0.008,0.0234 0.17083,0.13531 0.949,-0.19389 0.82617,-0.34961 -0.0503,-0.0635 0.0685,-0.0909 0.3164,-0.0742 0.24152,0.0189 0.41804,-0.0226 0.45508,-0.10156 0.0896,-0.19049 0.30109,-0.18381 0.25196,0.008 -0.0302,0.1115 0.11577,0.20686 0.44531,0.29492 0.68337,0.18255 1.26529,0.49652 2.61719,1.41211 0.64663,0.43794 1.24387,0.7871 1.32812,0.77734 0.0843,-0.0113 0.22765,0.0757 0.31836,0.18946 0.0903,0.11376 0.20351,0.20256 0.25,0.19726 0.0465,-0.004 0.44198,0.25571 0.88086,0.58204 0.81558,0.60608 2.47697,1.61887 2.6289,1.60156 0.0465,-0.004 0.24432,0.0982 0.43946,0.23047 0.19502,0.13228 0.38778,0.23695 0.42773,0.23242 0.0397,-0.004 0.35875,0.20826 0.70703,0.47461 0.79544,0.60737 1.49723,0.96696 1.88282,0.96484 0.31483,-0.002 0.69968,0.20609 0.4375,0.23633 -0.25474,0.0302 0.0187,0.22334 0.63476,0.45117 0.33487,0.12397 0.82688,0.36202 1.09375,0.5293 1.47666,0.92477 4.4944,1.93409 6.26367,2.0957 0.40664,0.0378 0.94298,0.0941 1.19141,0.12695 2.43523,0.32467 4.52284,-0.46571 4.36523,-1.65429 -0.034,-0.26306 -0.0946,-0.46462 -0.15429,-0.60352 v -0.002 c -0.0151,-0.12057 -0.0394,-0.2762 -0.0742,-0.47852 0.0113,10e-4 0.0238,0.0195 0.0351,0.0195 0.0733,-0.008 0.39424,0.19421 0.7129,0.45118 1.47556,1.19066 3.73023,1.63396 5.1621,1.01367 l 0.26758,-0.11524 -0.28515,-0.0351 c -0.15723,-0.0189 -0.73864,4e-5 -1.29102,0.041 -1.13968,0.0843 -1.73779,-0.0793 -2.78906,-0.76172 -0.33184,-0.21543 -0.64351,-0.3866 -0.69336,-0.38085 -0.13002,0.0151 -0.69634,-0.51424 -0.71875,-0.67188 -0.0227,-0.15572 0.50603,-0.0648 1.08789,0.19141 0.7206,0.31445 1.64809,0.35612 2.94141,0.13086 1.46135,-0.25437 1.1462,-0.39994 -0.47461,-0.21875 -1.40085,0.1542 -1.9515,0.028 -3.98828,-0.93555 -0.5144,-0.2434 -0.6861,-0.39337 -0.81446,-0.70703 -0.14551,-0.35603 -0.33362,-0.50717 -0.39843,-0.38672 -0.0151,0.0302 -0.0136,0.0943 -0.01,0.1582 l -0.38281,-0.28125 c -0.0979,-0.33411 -0.32644,-0.75262 -0.36914,-0.55469 -0.0151,0.0756 0.0388,0.23932 0.125,0.36329 0.003,0.008 0.003,0.01 0.008,0.0176 l -0.70508,-0.51953 c -0.004,-0.12926 -0.0587,-0.32407 -0.1543,-0.4082 -0.10053,-0.0888 -0.1316,0.089 -0.0723,0.27344 l -0.47656,-0.17969 c -0.2143,-0.48609 -0.25631,-0.50688 -0.28125,-0.11914 -4.2e-4,0.008 9e-4,0.008 0,0.0117 l -0.47266,-0.17969 c -0.21128,-0.32769 -0.71364,-0.70995 -1.00977,-0.67578 -0.0831,0.0113 -0.27528,-0.0952 -0.42578,-0.23242 -0.15042,-0.13758 -0.34113,-0.24187 -0.42383,-0.23243 -0.2347,0.0265 -1.4365,-1.06216 -2.10351,-1.90624 -0.33184,-0.4201 -0.70707,-0.89571 -0.83399,-1.05665 -0.19502,-0.24755 -0.28162,-0.29963 -0.26953,-0.21875 0.003,0.0227 0.0662,0.11178 0.082,0.14844 l -1.36132,-1.48633 c 0.3307,0.18407 0.20569,-0.0757 -0.21875,-0.45312 -0.20712,-0.18406 -0.37248,-0.29737 -0.36719,-0.25391 0.003,0.0342 0.0519,0.10981 0.11328,0.19532 l -0.34375,-0.375 c 0.034,0.0151 0.0609,0.0232 0.0723,0.0156 0.093,-0.051 -0.51832,-0.78577 -2.2168,-2.67969 -1.24955,-1.39336 -1.90095,-2.48119 -2.18555,-3.65039 -1.24634,-5.11982 -1.22096,-5.63619 0.34766,-7.10351 0.50532,-0.47271 1.02801,-1.00659 1.16211,-1.18555 0.13417,-0.17877 0.52137,-0.5619 0.85937,-0.85156 0.33789,-0.28951 0.92702,-0.90831 1.3086,-1.375 0.72533,-0.88706 1.08899,-1.17722 1.55078,-1.23047 0.15193,-0.0189 0.29492,-0.1058 0.31836,-0.19727 0.0227,-0.0915 0.11342,-0.14887 0.19922,-0.12695 0.0854,0.0227 0.23735,-0.0644 0.33789,-0.19141 0.49988,-0.63031 0.90785,-0.89738 1.73046,-1.13281 0.5703,-0.16327 0.83988,-0.29072 0.82813,-0.39258 -0.0669,-0.5811 0.41767,-0.13211 0.63477,0.58789 0.0949,0.31484 0.24793,0.79235 0.33789,1.06055 0.18104,0.53998 0.11053,1.28186 -0.11133,1.17773 -0.0378,-0.0189 -0.0604,-0.0193 -0.0664,-0.0117 -0.004,0.0113 0.005,0.0348 0.0352,0.0703 0.4408,0.55812 0.94152,-1.22902 0.76562,-2.73047 -0.096,-0.82065 -0.0939,-1.16416 0.008,-1.26953 0.44806,-0.4684 -0.736,-2.85198 -1.91797,-3.85938 -0.34356,-0.29253 -0.35177,-0.41532 -0.11328,-1.74609 0.26343,-1.46993 -0.0415,-4.00986 -0.51954,-4.33203 -0.12812,-0.0862 -0.24023,-0.23282 -0.25195,-0.32617 -0.0915,-0.73743 -2.25658,-2.78143 -2.87109,-2.71094 z"
             transform="scale(0.26458333)"
             sodipodi:nodetypes="cccccccsccccssscccscscccccccccccccccccsscccccssscccccccsccccscccccscsccscccscscsccscscscsccsscsssssscscscccscsssssscscccccccsscccccsccccscccccccccccccssccccscccccccccccscccccsccccsccccssscssccccscssccccccscccc" />
          <path
             d="m 112.81273,128.97962 5.52152,0.30675 q 3.68101,0 5.29146,-0.88191 0.23006,-0.15338 0.38343,-0.15338 0.19172,0 0.19172,0.53682 0,0.53681 -0.65184,1.76382 -0.9586,1.87884 -2.76076,1.87884 l -2.10892,-0.0383 q -0.30675,0 -0.38344,0.34509 -0.2684,5.63656 -0.2684,12.19335 0,6.51847 0.53681,9.81605 v 0.19172 q 0,0.95859 -1.84051,1.53376 -1.80216,0.57515 -3.4126,0.57515 -0.76688,0 -0.76688,-0.42178 0,-0.11504 0.11503,-0.53681 0.42178,-0.84357 0.72854,-8.16725 0.34509,-7.32369 0.34509,-11.04305 l -0.0767,-4.17948 q 0,-0.23007 -0.23006,-0.26842 -0.80522,-0.15337 -1.84051,-0.15337 -2.07057,0 -3.06751,0.84356 -0.26841,0.19172 -0.49847,0.19172 -0.26841,0 -0.26841,-0.30675 0,-0.46012 0.49847,-1.26534 0.46013,-0.80522 0.99694,-1.38038 1.3037,-1.38038 3.56599,-1.38038 z"
             style="font-size:38.3439px;line-height:1.25;font-family:Aladin;-inkscape-font-specification:Aladin;letter-spacing:0px;word-spacing:0px;fill:#c49f70;fill-opacity:1;stroke:#591b0f;stroke-width:0.35;stroke-miterlimit:4;stroke-dasharray:none;stroke-opacity:1"
             id="path17650-9-0" />
          <path
             d="m 135.24392,144.7773 -0.0767,4.90802 q 0,5.09974 1.11198,6.13502 0.15337,0.15338 0.15337,0.3451 0,0.57516 -2.49235,0.57516 -2.45401,0 -2.60738,-1.45707 -0.0383,-0.3451 -0.0383,-1.41873 l 0.15338,-6.13502 q 0,-0.26841 -0.30675,-0.26841 -1.84051,0 -3.45096,1.03529 -1.61044,1.03528 -1.61044,2.64573 0,0.84356 0.46013,1.41872 0.46012,0.57516 1.11197,0.57516 0.69019,0 1.11197,-0.26841 0.46013,-0.26841 0.53682,-0.30675 0.65184,0.0767 0.65184,1.38038 0,1.26535 -1.18866,2.07057 -1.18866,0.76688 -2.49235,0.76688 -1.30369,0 -2.26229,-0.46013 -0.92025,-0.46012 -1.34204,-1.03528 -0.42178,-0.57516 -0.69019,-1.3037 -0.2684,-0.88191 -0.2684,-1.53375 0,-2.68407 1.68713,-4.29452 1.68713,-1.61044 4.33286,-2.30063 3.48929,-0.69019 3.64267,-1.26535 0.11503,-0.42178 0.11503,-1.41873 0,-2.03222 -2.07057,-2.03222 -0.88191,0 -1.5721,0.57516 -0.69019,0.53681 -0.69019,1.38038 l 0.23006,0.92025 q -0.0767,0.65185 -1.38038,0.76688 l -0.42178,0.0383 q -1.15032,0 -1.84051,-0.57516 -0.65184,-0.57515 -0.65184,-1.53375 0,-0.6135 0.38344,-1.34204 0.42178,-0.76688 1.03528,-1.227 0.6135,-0.46013 1.87885,-0.80523 1.30369,-0.38343 2.49236,-0.38343 1.18866,0 1.8405,0.0767 0.65185,0.0767 1.76382,0.38344 1.15032,0.26841 1.87885,1.07363 0.76688,0.80522 0.80522,1.72548 0.0767,0.88191 0.0767,2.56904 z"
             style="font-size:38.3439px;line-height:1.25;font-family:Aladin;-inkscape-font-specification:Aladin;letter-spacing:0px;word-spacing:0px;fill:#c49f70;fill-opacity:1;stroke:#591b0f;stroke-width:0.35;stroke-miterlimit:4;stroke-dasharray:none;stroke-opacity:1"
             id="path17652-1-6" />
          <path
             d="m 137.19948,152.52277 0.76688,0.11503 q 2.26229,0 4.52458,-3.87274 0.11503,-0.19172 0.30675,-0.46011 -1.68713,-3.10587 -2.95248,-4.94638 -1.22701,-1.8405 -1.64879,-2.10891 l -0.38344,-0.30675 q -0.53681,-0.23005 -0.53681,-0.57515 0,-0.49847 1.38038,-1.07363 1.41872,-0.57516 2.64573,-0.65185 0.65184,-0.0383 1.227,0.9586 1.07363,1.5721 2.60739,4.79299 v 0.0767 q 1.80216,-3.06751 2.30063,-4.33286 0,-0.57516 0.9586,-0.88191 0.9586,-0.30675 2.37732,-0.30675 1.41872,0 1.41872,0.46012 0,0.19172 -0.34509,0.42179 -0.23006,0.11503 -0.69019,0.46012 -0.42178,0.3451 -1.84051,2.03223 -1.41872,1.64879 -2.87579,4.06445 -0.0767,0.11503 -0.11503,0.23007 2.22394,4.02611 2.64573,4.63961 0.42178,0.57516 0.65184,0.95859 0.26841,0.38344 0.99694,1.11198 0.76688,0.72853 1.41873,0.92025 0.69019,0.19172 0.69019,0.53682 0,0.53681 -1.38038,1.30369 -1.38038,0.72853 -2.56904,0.72853 -0.84357,0 -1.30369,-0.57516 -0.80523,-0.95859 -3.52764,-5.71324 -2.37733,3.94943 -2.83745,4.60127 -0.46013,0.6135 -1.15032,1.11197 -0.69019,0.49848 -1.53375,0.49848 -0.80523,0 -1.34204,-0.53682 -0.49847,-0.53681 -0.57516,-1.07363 l -0.0767,-0.53681 q 0,-2.07057 0.76688,-2.07057 z"
             style="font-size:38.3439px;line-height:1.25;font-family:Aladin;-inkscape-font-specification:Aladin;letter-spacing:0px;word-spacing:0px;fill:#c49f70;fill-opacity:1;stroke:#591b0f;stroke-width:0.35;stroke-miterlimit:4;stroke-dasharray:none;stroke-opacity:1"
             id="path17654-2-2" />
        </g>
        <path
           id="path24980"
           style="fill:#c49f70;stroke:#591b0f;stroke-width:0.1;stroke-linejoin:round;stroke-miterlimit:4;stroke-dasharray:none"
           d="m 69.982129,28.640822 c -0.0319,0.01332 -0.202138,-0.189538 -0.225824,-0.246296 -0.02369,-0.05676 0.03535,-0.157882 0.06725,-0.17119 0.0319,-0.01332 0.105282,-0.0023 0.128971,0.05448 0.02369,0.05676 0.0615,0.349698 0.0296,0.363007 z"
           sodipodi:nodetypes="sssss" />
        <ellipse
           style="fill:#c49f70;fill-opacity:1;stroke:#591b0f;stroke-width:0.172667;stroke-linejoin:round;stroke-miterlimit:4;stroke-dasharray:none;stroke-opacity:1"
           id="path25658"
           transform="matrix(0.68793627,-0.7257711,0.66963839,0.7426873,0,0)"
           ry="0.3600935"
           rx="0.65614772"
           cy="70.803352"
           cx="31.18642" />
        <ellipse
           style="font-size:38.3439px;line-height:1.25;letter-spacing:0px;word-spacing:0px;fill:#591b0f;fill-opacity:1;stroke:#591b0f;stroke-width:0.0631974;stroke-linejoin:round;stroke-miterlimit:4;stroke-dasharray:none;stroke-opacity:1"
           id="path25658-2"
           transform="matrix(-0.60240258,-0.79819241,-0.58318162,0.8123418,0,0)"
           ry="0.14123732"
           rx="0.305399"
           cy="-38.642483"
           cx="-76.883263" />
      </g>
    </g>
  </g>
</svg>
